<svg width="38" height="42" viewBox="0 0 38 42" fill="none" xmlns="http://www.w3.org/2000/svg">
<path d="M0.92688 0L4.29281 37.7874L19.4059 42L34.5588 37.7727L37.9269 0H0.92688ZM30.9324 8.6583L29.8104 21.2457L29.8146 21.315L29.8104 21.4704L29.012 30.2694L28.9259 31.0527L19.4269 33.6777L19.4185 33.6861L9.93841 31.0443L9.29548 23.7678H13.9431L14.2729 27.468L19.4269 28.8645L24.5976 27.4491L25.1439 21.4242H14.336L14.2435 20.4057L14.0313 18.0201L13.9221 16.7391H25.5578L25.9822 12.0519H8.25334L8.16089 11.0334L7.95079 8.6457L7.83943 7.3647H31.0437L30.9324 8.6583Z" fill="url(#paint0_linear_2028_4)"/>
<defs>
<linearGradient id="paint0_linear_2028_4" x1="19.4269" y1="0" x2="19.4269" y2="42" gradientUnits="userSpaceOnUse">
<stop stop-color="#FDFDFD"/>
<stop offset="1" stop-color="#666666"/>
</linearGradient>
</defs>
</svg>
