<svg width="668" height="668" viewBox="0 0 668 668" fill="none" xmlns="http://www.w3.org/2000/svg">
<path d="M334.001 23.54V85.632M334.001 582.368V644.46M23.541 334H85.633M582.369 334H644.461M147.725 520.276L158.374 509.627M509.628 158.373L520.277 147.724M520.277 520.276L509.628 509.627M158.374 158.373L147.725 147.724" stroke="url(#paint0_linear_1597_3)" stroke-width="46.569" stroke-linecap="round"/>
<path d="M186.533 314.769C186.533 320.944 188.986 326.867 193.353 331.234C197.72 335.6 203.642 338.054 209.818 338.054C215.993 338.054 221.916 335.6 226.282 331.234C230.649 326.867 233.102 320.944 233.102 314.769H186.533ZM334.002 268.821L317.082 284.841C319.258 287.143 321.881 288.976 324.79 290.229C327.7 291.483 330.834 292.129 334.002 292.129C337.169 292.129 340.304 291.483 343.213 290.229C346.123 288.976 348.746 287.143 350.922 284.841L334.002 268.821ZM280.944 396.141C276.203 392.232 270.109 390.355 263.991 390.92C257.872 391.485 252.225 394.446 248.28 399.157C244.335 403.868 242.412 409.948 242.93 416.07C243.448 422.193 246.366 427.863 251.047 431.844L280.944 396.141ZM233.102 314.769C233.102 292.571 245.427 274.906 260.764 267.765C274.549 261.37 295.07 261.587 317.082 284.841L350.922 252.863C317.051 217.067 275.48 209.585 241.143 225.543C208.359 240.755 186.533 275.558 186.533 314.769H233.102ZM281.72 456.339C287.929 461.306 295.505 467.36 303.452 472.079C311.307 476.736 321.77 481.486 334.002 481.486V434.917C333.784 434.917 331.86 434.793 327.203 432.03C321.492 428.376 316.026 424.352 310.841 419.984L281.72 456.339ZM386.283 456.339C403.203 442.772 427.357 425.355 446.202 403.809C465.823 381.363 481.47 352.583 481.47 314.769H434.901C434.901 338.302 425.587 356.619 411.12 373.167C395.845 390.645 376.814 404.213 357.162 419.984L386.283 456.339ZM481.47 314.769C481.47 275.558 459.645 240.755 426.86 225.543C392.523 209.585 350.953 217.067 317.082 252.863L350.922 284.841C372.933 261.587 393.455 261.37 407.239 267.765C422.576 274.906 434.901 292.571 434.901 314.769H481.47ZM357.162 419.984C350.518 425.324 345.427 429.298 340.801 432.03C336.175 434.762 334.219 434.917 334.002 434.917V481.486C346.203 481.486 356.696 476.736 364.582 472.079C372.499 467.36 380.074 461.306 386.314 456.308L357.162 419.984ZM310.841 419.984C300.441 411.664 291.034 404.585 280.944 396.141L251.047 431.875C261.447 440.567 272.996 449.353 281.72 456.339L310.841 419.984Z" fill="url(#paint1_linear_1597_3)"/>
<defs>
<linearGradient id="paint0_linear_1597_3" x1="597.448" y1="109.683" x2="124.448" y2="542.837" gradientUnits="userSpaceOnUse">
<stop stop-color="#211E1F"/>
<stop offset="1" stop-color="#877B7F"/>
</linearGradient>
<linearGradient id="paint1_linear_1597_3" x1="334.002" y1="217.578" x2="334.002" y2="481.486" gradientUnits="userSpaceOnUse">
<stop stop-color="#120F10"/>
<stop offset="1" stop-color="#902930"/>
</linearGradient>
</defs>
</svg>
