<svg width="47" height="48" viewBox="0 0 47 48" fill="none" xmlns="http://www.w3.org/2000/svg">
<path d="M18.7388 35.8869L35.2294 26.4749L27.7377 22.1615L11.2581 31.6507L18.7388 35.8869ZM35.9878 16.6357L28.4881 12.3223V20.8624L35.9893 25.1774L35.9878 16.6357ZM36.7366 6.70977L29.2386 11.0232L36.7366 15.3366L44.2331 11.0216L36.7366 6.70977ZM13.6434 28.5449L17.9947 26.0398V7.2253L10.4935 11.5419V30.3563L13.6434 28.5449ZM9.74304 1.61438L2.245 5.92938L9.74304 10.2444L17.2363 5.92938L9.74304 1.61438ZM1.49299 7.22688V36.3173L17.9899 45.8112V37.1859L9.36309 32.305C9.33471 32.2845 9.31264 32.2624 9.28269 32.2435C9.26062 32.223 9.23539 32.2072 9.21332 32.1899L9.21174 32.1851C9.1881 32.1615 9.1676 32.1363 9.15026 32.1079L9.14868 32.1063C9.12661 32.0858 9.10927 32.0622 9.0935 32.0354L9.09193 32.0338H9.0872C9.07458 32.0101 9.06197 31.9786 9.04936 31.9471L9.04778 31.9408C9.03675 31.9171 9.02413 31.8903 9.0131 31.8604L9.01152 31.8556C9.00522 31.8241 8.99891 31.7847 8.99576 31.7453V31.7421C8.99103 31.7185 8.9863 31.6901 8.98314 31.6617V31.6601V11.545L4.63661 9.03832L1.49299 7.22688ZM35.9893 36.3157V27.7677L19.4924 37.1859V45.8096L35.9893 36.3157ZM44.9819 20.8624V12.3223L37.4839 16.6373V25.1774L44.9819 20.8624ZM46.4576 10.8277C46.4749 10.8876 46.486 10.9554 46.486 11.0263V21.2944C46.486 21.5718 46.3362 21.8131 46.1123 21.9423L46.1092 21.9439L37.4886 26.9084V36.7477C37.4886 37.0235 37.3389 37.2648 37.1166 37.3956L37.1134 37.3972L19.1156 47.7551C19.0778 47.7756 19.0336 47.7945 18.9879 47.8071L18.9832 47.8087L18.9359 47.8292C18.8791 47.8465 18.8129 47.856 18.7451 47.856C18.6773 47.856 18.6111 47.8465 18.548 47.8276L18.5528 47.8292C18.5291 47.8229 18.5102 47.815 18.4913 47.8039L18.4929 47.8055C18.444 47.7882 18.403 47.7724 18.3636 47.7535L18.3699 47.7567L0.376794 37.3988C0.149772 37.2663 0 37.0251 0 36.7492V5.93096C0 5.86159 0.0110359 5.7938 0.0299544 5.73074L0.0283778 5.73547C0.034684 5.71182 0.0488729 5.69605 0.0567556 5.6724C0.0709445 5.62668 0.0867099 5.58885 0.104052 5.55259L0.102475 5.55732C0.115088 5.53209 0.130853 5.51002 0.148195 5.4911L0.21441 5.40124L0.288508 5.34764C0.316885 5.32399 0.34211 5.30034 0.370488 5.27984H0.372064L9.37097 0.100899C9.47818 0.037837 9.60746 0 9.74462 0C9.88177 0 10.0111 0.037837 10.1214 0.102475L10.1183 0.100899L19.1203 5.27984C19.1503 5.30034 19.1755 5.32241 19.2007 5.34606L19.2764 5.39966C19.3016 5.42804 19.3158 5.45957 19.3426 5.48952C19.3615 5.50844 19.3773 5.53051 19.3915 5.55416L19.3931 5.55574C19.4088 5.58727 19.4246 5.62511 19.4388 5.66452L19.4404 5.67083L19.4656 5.73389C19.4829 5.78907 19.494 5.85371 19.494 5.91992C19.494 5.92307 19.494 5.92623 19.494 5.92938V25.1758L26.992 20.8608V11.0216C26.992 11.02 26.992 11.0185 26.992 11.0185C26.992 10.9507 27.0015 10.8845 27.0188 10.8214L27.0172 10.8261C27.0235 10.8056 27.0377 10.7867 27.0424 10.7631C27.0582 10.7158 27.074 10.6779 27.0929 10.6401L27.0897 10.6464C27.1039 10.6227 27.126 10.607 27.1402 10.5802C27.1638 10.5502 27.1828 10.5203 27.2064 10.495C27.2285 10.4746 27.2521 10.4556 27.2774 10.4399L27.2789 10.4383C27.3073 10.4178 27.331 10.3926 27.3609 10.3752H27.3625L36.3614 5.19471C36.4686 5.13165 36.5979 5.09381 36.735 5.09381C36.8722 5.09381 37.0015 5.13165 37.1118 5.19629L37.1087 5.19471L46.1076 10.3752C46.1391 10.3957 46.1612 10.4178 46.1911 10.4367C46.2148 10.4572 46.2416 10.473 46.2637 10.4919C46.2889 10.5203 46.3078 10.5518 46.3315 10.5802C46.3488 10.5991 46.3646 10.6212 46.3788 10.6432L46.3803 10.6448C46.3993 10.6795 46.415 10.7189 46.4276 10.7599L46.4292 10.7646C46.4418 10.7836 46.4513 10.8041 46.4592 10.8261L46.4576 10.8277Z" fill="url(#paint0_linear_2028_10)"/>
<defs>
<linearGradient id="paint0_linear_2028_10" x1="23.243" y1="0.280591" x2="23.243" y2="47.5769" gradientUnits="userSpaceOnUse">
<stop stop-color="#FDFDFD"/>
<stop offset="1" stop-color="#666666"/>
</linearGradient>
</defs>
</svg>
