<svg width="45" height="45" viewBox="0 0 45 45" fill="none" xmlns="http://www.w3.org/2000/svg">
<path d="M38.25 0H6.75C3.02208 0 0 3.02208 0 6.75V38.25C0 41.9779 3.02208 45 6.75 45H38.25C41.9779 45 45 41.9779 45 38.25V6.75C45 3.02208 41.9779 0 38.25 0Z" fill="url(#paint0_linear_2028_16)"/>
<path d="M13.623 17.7539H8.52539C8.46833 17.7507 8.41176 17.7661 8.3642 17.7978C8.31665 17.8295 8.28068 17.8758 8.26172 17.9297L5.88867 30.3223C5.88867 30.5859 6.15234 30.5859 6.15234 30.5859H8.78906C9.05273 30.5859 9.05273 30.4102 9.05273 30.4102L9.66797 27.334H12.041C15.7324 27.334 17.5781 24.873 18.0176 22.6758C18.457 20.4785 18.1055 17.7539 13.623 17.7539ZM14.7656 22.5C14.4141 24.1699 13.2715 24.873 11.6895 24.873H10.1074L11.0742 20.2148H12.6562C15.0293 20.2148 14.9414 21.0937 14.7656 22.5Z" fill="#161513"/>
<path d="M24.1699 27.334C23.8184 27.334 23.9062 26.9824 23.9062 26.9824L24.9609 21.6211C24.9609 20.918 25.4883 20.2148 23.3789 20.3027H21.7969L20.4785 27.1582C20.4785 27.1582 20.4785 27.4219 20.127 27.4219H17.5781C17.3145 27.4219 17.3145 27.1582 17.3145 27.1582L19.7754 14.7656C19.7754 14.7656 19.7754 14.5898 20.127 14.5898H22.7637C23.0273 14.5898 22.9395 14.8535 22.9395 14.8535L22.3242 17.8418H24.6094C27.7734 17.8418 28.5645 19.3359 28.3008 21.0938L27.1582 27.1582C27.1582 27.1582 27.1582 27.4219 26.7188 27.4219L24.1699 27.334Z" fill="#161513"/>
<path d="M34.6289 17.7539H29.5312C29.4742 17.7507 29.4176 17.7661 29.3701 17.7978C29.3225 17.8295 29.2865 17.8758 29.2676 17.9297L26.8945 30.3223C26.8945 30.5859 27.1582 30.5859 27.1582 30.5859H29.7949C30.0586 30.5859 30.0586 30.4102 30.0586 30.4102L30.6738 27.334H33.0469C36.7383 27.334 38.584 24.873 39.0234 22.6758C39.4629 20.4785 39.1113 17.7539 34.6289 17.7539ZM35.7715 22.5C35.4199 24.1699 34.2773 24.873 32.6953 24.873H31.1133L32.0801 20.2148H33.6621C36.0352 20.2148 35.9473 21.0937 35.7715 22.5Z" fill="#161513"/>
<defs>
<linearGradient id="paint0_linear_2028_16" x1="22.5" y1="0" x2="22.5" y2="45" gradientUnits="userSpaceOnUse">
<stop stop-color="white"/>
<stop offset="1" stop-color="#666666"/>
</linearGradient>
</defs>
</svg>
