<svg width="24" height="24" viewBox="0 0 18 18" fill="none" xmlns="http://www.w3.org/2000/svg">
<path d="M9 18C13.9706 18 18 13.9706 18 9C18 4.02944 13.9706 0 9 0C4.02944 0 0 4.02944 0 9C0 13.9706 4.02944 18 9 18Z" fill="white"/>
<path d="M13.4913 5.27709C13.5714 4.75928 13.0791 4.35057 12.6187 4.55271L3.44876 8.5788C3.11859 8.72376 3.14275 9.22391 3.48518 9.33294L5.37622 9.93516C5.73719 10.0501 6.12798 9.99064 6.44317 9.77291L10.7067 6.82734C10.8353 6.73849 10.9754 6.92132 10.8656 7.03453L7.79658 10.1987C7.49887 10.5056 7.55795 11.0258 7.91609 11.2503L11.3522 13.4051C11.7376 13.6467 12.2333 13.404 12.3054 12.9382L13.4913 5.27709Z" fill="#191919"/>
</svg>
